<svg width="0" height="0" class="hidden">
  <symbol fill="none" xmlns="http://www.w3.org/2000/svg" viewBox="0 0 24 24" id="google">
    <path d="M22.501 12.2332C22.501 11.3699 22.4296 10.7399 22.2748 10.0865H12.2153V13.9832H18.12C18.001 14.9515 17.3582 16.4099 15.9296 17.3898L15.9096 17.5203L19.0902 19.935L19.3106 19.9565C21.3343 18.1249 22.501 15.4298 22.501 12.2332Z" fill="#4285F4"></path>
    <path d="M12.2147 22.5C15.1075 22.5 17.5361 21.5666 19.3099 19.9567L15.929 17.3899C15.0242 18.0083 13.8099 18.4399 12.2147 18.4399C9.38142 18.4399 6.97669 16.6083 6.11947 14.0766L5.99382 14.0871L2.68656 16.5954L2.64331 16.7132C4.40519 20.1433 8.02423 22.5 12.2147 22.5Z" fill="#00AF87"></path>
    <path d="M6.11997 14.0767C5.89379 13.4233 5.76289 12.7233 5.76289 12C5.76289 11.2766 5.89379 10.5766 6.10807 9.92331L6.10208 9.78417L2.75337 7.23553L2.64381 7.28661C1.91765 8.70996 1.50098 10.3083 1.50098 12C1.50098 13.6916 1.91765 15.2899 2.64381 16.7133L6.11997 14.0767Z" fill="#FBBC05"></path>
    <path d="M12.2148 5.55997C14.2267 5.55997 15.5838 6.41163 16.3576 7.12335L19.3814 4.23C17.5243 2.53834 15.1076 1.5 12.2148 1.5C8.02426 1.5 4.4052 3.85665 2.64331 7.28662L6.10759 9.92332C6.97672 7.39166 9.38146 5.55997 12.2148 5.55997Z" fill="#FF6661"></path>
  </symbol>
  <symbol fill="none" xmlns="http://www.w3.org/2000/svg" viewBox="0 0 235 30" id="logo">
    <path fill-rule="evenodd" clip-rule="evenodd" d="M51.3181 14.9387C52.1432 14.9387 52.8275 14.6516 53.3716 14.077C53.9153 13.503 54.1867 12.7918 54.1867 11.9444C54.1867 11.0786 53.9153 10.3628 53.3716 9.79795C52.8275 9.23307 52.1432 8.95062 51.3181 8.95062H47.8587V14.9387H51.3181ZM51.3181 5.30698C53.2124 5.30698 54.8057 5.94753 56.0998 7.22778C57.393 8.50849 58.0402 10.0804 58.0402 11.9444C58.0402 13.8089 57.393 15.3813 56.0998 16.6615C54.8057 17.9422 53.2124 18.5819 51.3181 18.5819H47.8587V24.6927H43.9774V5.30698H51.3181Z" fill="#E7E0EB"></path>
    <path fill-rule="evenodd" clip-rule="evenodd" d="M64.0869 12.8651C64.424 11.9614 64.9818 11.2831 65.7605 10.8313C66.5377 10.3794 67.4053 10.1537 68.3618 10.1537V14.3551C67.2548 14.2235 66.2663 14.4501 65.3946 15.033C64.523 15.6168 64.0869 16.5865 64.0869 17.9424V24.6929H60.4587V10.1537H64.0869V12.8651Z" fill="#E7E0EB"></path>
    <path fill-rule="evenodd" clip-rule="evenodd" d="M74.1557 20.1494C74.8577 20.8652 75.7381 21.2233 76.7963 21.2233C77.8546 21.2233 78.7395 20.8652 79.4515 20.1494C80.1631 19.4332 80.5184 18.5245 80.5184 17.4233C80.5184 16.3221 80.1631 15.413 79.4515 14.6968C78.7395 13.981 77.8546 13.6233 76.7963 13.6233C75.7381 13.6233 74.8577 13.981 74.1557 14.6968C73.4533 15.413 73.1016 16.3221 73.1016 17.4233C73.1016 18.5245 73.4533 19.4332 74.1557 20.1494ZM81.9416 22.5863C80.5367 23.9906 78.822 24.6929 76.7963 24.6929C74.771 24.6929 73.0605 23.9906 71.6647 22.5863C70.2689 21.1817 69.571 19.4609 69.571 17.4233C69.571 15.3853 70.2689 13.6641 71.6647 12.2598C73.0605 10.856 74.771 10.1537 76.7963 10.1537C78.822 10.1537 80.5367 10.856 81.9416 12.2598C83.3465 13.6641 84.0489 15.3853 84.0489 17.4233C84.0489 19.4609 83.3465 21.1817 81.9416 22.5863Z" fill="#E7E0EB"></path>
    <path fill-rule="evenodd" clip-rule="evenodd" d="M94.5429 13.656H91.365V19.832C91.365 20.3216 91.4868 20.6793 91.7304 20.9054C91.974 21.1311 92.3302 21.2585 92.7996 21.2867C93.2676 21.3152 93.8492 21.3106 94.5429 21.2724V24.5768C92.0492 24.8596 90.2908 24.6239 89.2695 23.8711C88.2473 23.1183 87.7364 21.7717 87.7364 19.832V13.656H85.2897V10.1536H87.7364V7.73015L91.365 6.6163V10.1536H94.5429V13.656Z" fill="#E7E0EB"></path>
    <path fill-rule="evenodd" clip-rule="evenodd" d="M100.336 20.1494C101.038 20.8652 101.918 21.2233 102.977 21.2233C104.035 21.2233 104.921 20.8652 105.632 20.1494C106.343 19.4332 106.699 18.5245 106.699 17.4233C106.699 16.3221 106.343 15.413 105.632 14.6968C104.921 13.981 104.035 13.6233 102.977 13.6233C101.918 13.6233 101.038 13.981 100.336 14.6968C99.6335 15.413 99.2822 16.3221 99.2822 17.4233C99.2822 18.5245 99.6335 19.4332 100.336 20.1494ZM108.122 22.5863C106.717 23.9906 105.002 24.6929 102.977 24.6929C100.952 24.6929 99.2412 23.9906 97.8454 22.5863C96.4496 21.1817 95.7517 19.4609 95.7517 17.4233C95.7517 15.3853 96.4496 13.6641 97.8454 12.2598C99.2412 10.856 100.952 10.1537 102.977 10.1537C105.002 10.1537 106.717 10.856 108.122 12.2598C109.527 13.6641 110.229 15.3853 110.229 17.4233C110.229 19.4609 109.527 21.1817 108.122 22.5863Z" fill="#E7E0EB"></path>
    <path fill-rule="evenodd" clip-rule="evenodd" d="M119.989 14.9387C120.814 14.9387 121.498 14.6516 122.042 14.077C122.586 13.503 122.858 12.7918 122.858 11.9444C122.858 11.0786 122.586 10.3628 122.042 9.79795C121.498 9.23307 120.814 8.95062 119.989 8.95062H116.53V14.9387H119.989ZM119.989 5.30698C121.883 5.30698 123.476 5.94753 124.77 7.22778C126.064 8.50849 126.711 10.0804 126.711 11.9444C126.711 13.8089 126.064 15.3813 124.77 16.6615C123.476 17.9422 121.883 18.5819 119.989 18.5819H116.53V24.6927H112.648V5.30698H119.989Z" fill="#E7E0EB"></path>
    <path fill-rule="evenodd" clip-rule="evenodd" d="M129.131 24.6929H132.759V12.5771H129.131V24.6929ZM130.911 10.1537C130.263 10.1537 129.702 9.91492 129.227 9.43707C128.751 8.95995 128.514 8.39638 128.514 7.74534C128.514 7.09552 128.751 6.52639 129.227 6.03841C129.702 5.55089 130.263 5.30713 130.911 5.30713C131.578 5.30713 132.15 5.55089 132.625 6.03841C133.101 6.52639 133.339 7.09552 133.339 7.74534C133.339 8.39638 133.101 8.95995 132.625 9.43707C132.15 9.91492 131.578 10.1537 130.911 10.1537Z" fill="#E7E0EB"></path>
    <path fill-rule="evenodd" clip-rule="evenodd" d="M138.904 16.1291H146.045C145.839 15.1927 145.415 14.4954 144.771 14.0364C144.127 13.5778 143.394 13.3479 142.573 13.3479C141.601 13.3479 140.799 13.5917 140.165 14.0776C139.53 14.5639 139.11 15.2478 138.904 16.1291ZM149.172 21.4287C149.052 21.6128 148.958 21.7464 148.958 21.7464C147.576 23.711 145.541 24.6928 142.853 24.6928C140.538 24.6928 138.681 24.0044 137.281 22.6274C135.88 21.2509 135.18 19.5159 135.18 17.4232C135.18 15.349 135.87 13.6186 137.252 12.2325C138.633 10.8471 140.407 10.1536 142.573 10.1536C144.626 10.1536 146.321 10.8513 147.655 12.2463C148.99 13.6417 149.658 15.3675 149.658 17.4232C149.658 17.8822 149.611 18.3689 149.518 18.8825H138.96C139.446 20.6083 140.762 21.4712 142.909 21.4712C144.133 21.4712 145.093 21.1109 145.791 20.3897C146.799 20.6982 149.172 21.4287 149.172 21.4287Z" fill="#E7E0EB"></path>
    <path fill-rule="evenodd" clip-rule="evenodd" d="M1.57813 0.438385C1.26677 0.438385 0.983782 0.571213 0.790037 0.78601C0.615919 0.970108 0.50712 1.21724 0.5 1.4871V1.55976C0.503353 1.68716 0.528892 1.80731 0.574082 1.91829C0.575788 1.92755 0.579555 1.93635 0.582849 1.94561C0.617625 2.02927 0.662819 2.1074 0.717661 2.17851C0.737311 2.20579 0.759083 2.23097 0.782502 2.25501C0.786269 2.26039 0.791743 2.26587 0.797157 2.27175L4.23538 6.37058L5.47672 7.85007L9.19285 12.2784L10.4325 13.7566L13.7599 17.723L14.9996 19.2008V29.5613C15.7303 29.5613 16.3937 29.2701 16.8812 28.799C16.8829 28.799 16.8829 28.799 16.8829 28.7972L17.2491 28.3601L26.1722 17.723L29.2278 14.0811C29.2425 14.0643 29.2567 14.0483 29.2697 14.0298C29.3345 13.9478 29.3873 13.8567 29.4254 13.7566C29.4744 13.6347 29.4999 13.5036 29.4999 13.3636V1.52363C29.4999 1.23745 29.389 0.975581 29.2077 0.784322C29.0123 0.571213 28.7315 0.438385 28.4193 0.438385H1.57813Z" fill="#F45E5A"></path>
    <path fill-rule="evenodd" clip-rule="evenodd" d="M15 25.1312V29.5616C14.2696 29.5616 13.6063 29.2703 13.1186 28.7992C13.1166 28.7992 13.1166 28.7992 13.1166 28.7971L12.7507 28.3603L3.82773 17.7228L0.790037 14.1027C0.782916 14.0973 0.777502 14.0897 0.772028 14.0826L0.724777 14.0262C0.721014 14.0225 0.717656 14.0191 0.713893 14.0136C0.656109 13.9351 0.607152 13.8497 0.572435 13.7568C0.528892 13.6459 0.503768 13.5257 0.5 13.4V13.3273C0.507531 13.0545 0.615919 12.8103 0.790037 12.6246C0.985926 12.4115 1.26677 12.2786 1.57859 12.2786H4.21403L5.45373 13.7568L8.78146 17.7228L14.2369 24.2246L14.9982 25.1328L15 25.1312Z" fill="#FFDAD7"></path>
    <path fill-rule="evenodd" clip-rule="evenodd" d="M15 19.2008V25.1309L14.9982 25.1326L14.2369 24.2244L8.78146 17.7226L5.45373 13.7566L4.21403 12.2785L0.769971 8.17625C0.75573 8.15947 0.741079 8.14136 0.726428 8.12329C0.66323 8.04132 0.610505 7.9501 0.572435 7.85007C0.528892 7.73913 0.503768 7.61894 0.5 7.49158V7.41888C0.507531 7.14779 0.615919 6.90357 0.790037 6.71824C0.983782 6.50345 1.26677 6.37067 1.57859 6.37067H4.23579L5.47713 7.85007L9.19285 12.2785L10.4325 13.7566L13.7603 17.7226L15 19.2008Z" fill="#FF8982"></path>
    <path d="M220.816 1.31583H170.64C163.083 1.31583 156.956 7.44246 156.956 15C156.956 22.5576 163.083 28.6842 170.64 28.6842H220.816C228.373 28.6842 234.5 22.5576 234.5 15C234.5 7.44246 228.373 1.31583 220.816 1.31583Z" fill="#FFFBFF"></path>
    <path d="M171.007 11.194H169.769V10.1595H171.007V11.194ZM171.007 18.193H169.884V13.3652H169.028L169.092 12.4456H171.007V18.193ZM174.048 18.193H172.924V12.4456H173.945L174.009 13.0459C174.546 12.6244 175.248 12.3179 176.232 12.3179C177.573 12.3179 178.147 12.9693 178.147 14.3997V18.193H177.049V14.5275C177.049 13.5951 176.717 13.2503 175.695 13.2503C175.044 13.2503 174.456 13.544 174.048 13.9527V18.193ZM184.188 18.193H183.064V10.3766H186.347C188.071 10.3766 188.837 11.4494 188.837 12.9693C188.837 14.5019 187.879 15.4981 186.295 15.4981H184.188V18.193ZM184.188 11.36V14.5275H186.104C187.164 14.5275 187.726 13.9144 187.726 12.9693C187.726 11.922 187.19 11.36 186.168 11.36H184.188ZM193.082 18.3207C191.052 18.3207 190.068 17.3245 190.068 15.2938C190.068 13.4291 190.898 12.3179 192.763 12.3179C194.385 12.3179 195.254 13.2886 195.254 14.7446V15.7408H191.116C191.205 16.9413 191.792 17.5416 193.351 17.5416C193.9 17.5416 194.449 17.4139 194.909 17.2351V17.9759C194.398 18.2058 193.785 18.3207 193.082 18.3207ZM191.116 15.0256H194.257V14.5785C194.257 13.6973 193.849 13.097 192.789 13.097C191.511 13.097 191.116 13.8889 191.116 15.0256ZM198.058 18.193H196.934V12.4456H197.994L198.058 13.1098C198.594 12.7649 199.373 12.4329 200.088 12.3179V13.2503C199.45 13.3652 198.543 13.6845 198.058 14.0038V18.193ZM203.287 18.3207C202.546 18.3207 201.831 18.2058 201.384 18.027V17.1968C201.907 17.4011 202.571 17.5161 203.082 17.5161C204.015 17.5161 204.449 17.2734 204.449 16.6604C204.449 15.9835 203.9 15.8941 202.891 15.5492C201.933 15.2044 201.256 14.9489 201.256 13.9144C201.256 12.8543 201.946 12.3179 203.491 12.3179C204.117 12.3179 204.781 12.4073 205.177 12.535V13.3652C204.717 13.1992 204.219 13.1225 203.759 13.1225C202.852 13.1225 202.393 13.3397 202.393 13.9144C202.393 14.5147 202.814 14.6169 203.772 14.9234C204.985 15.2938 205.56 15.6258 205.56 16.6604C205.56 17.8098 204.73 18.3207 203.287 18.3207ZM208.749 11.194H207.511V10.1595H208.749V11.194ZM208.749 18.193H207.626V13.3652H206.77L206.834 12.4456H208.749V18.193ZM212.377 18.3207C211.317 18.3207 210.436 17.8482 210.436 16.6221C210.436 15.3193 211.279 14.8595 212.569 14.8595H214.472V14.3614C214.472 13.4674 214.127 13.097 212.862 13.097C212.249 13.097 211.636 13.1992 211.074 13.4035V12.6628C211.624 12.4329 212.403 12.3179 213.118 12.3179C214.702 12.3179 215.545 12.9437 215.545 14.4764V18.193H214.587L214.51 17.5289C214.037 18.0397 213.361 18.3207 212.377 18.3207ZM212.76 17.5799C213.514 17.5799 214.037 17.3373 214.472 16.8392V15.562H212.799C212.045 15.562 211.47 15.7536 211.47 16.5837C211.47 17.2734 211.968 17.5799 212.76 17.5799ZM218.537 18.193H217.413V12.4456H218.435L218.499 13.0459C219.035 12.6244 219.738 12.3179 220.721 12.3179C222.062 12.3179 222.637 12.9693 222.637 14.3997V18.193H221.539V14.5275C221.539 13.5951 221.207 13.2503 220.185 13.2503C219.534 13.2503 218.946 13.544 218.537 13.9527V18.193Z" fill="#201F23"></path>
  </symbol>
  <symbol fill="none" xmlns="http://www.w3.org/2000/svg" viewBox="0 0 531 113" id="logo-grayscale">
    <path fill-rule="evenodd" clip-rule="evenodd" d="M120.409 58.6362C122.218 58.6362 123.718 58.0069 124.911 56.7472C126.103 55.4886 126.698 53.9295 126.698 52.0719C126.698 50.1737 126.103 48.6046 124.911 47.3661C123.718 46.1277 122.218 45.5085 120.409 45.5085H112.825V58.6362H120.409ZM120.409 37.5205C124.562 37.5205 128.055 38.9248 130.892 41.7315C133.727 44.5392 135.146 47.9854 135.146 52.0719C135.146 56.1594 133.727 59.6066 130.892 62.4132C128.055 65.2208 124.562 66.6232 120.409 66.6232H112.825V80.02H104.316V37.5205H120.409Z" fill="#FDF8FD"/>
    <path fill-rule="evenodd" clip-rule="evenodd" d="M148.401 54.0902C149.141 52.1091 150.364 50.6219 152.07 49.6314C153.774 48.6408 155.677 48.1461 157.773 48.1461V57.3567C155.347 57.0683 153.18 57.565 151.269 58.843C149.357 60.1228 148.401 62.2486 148.401 65.2212V80.0203H140.447V48.1461H148.401V54.0902Z" fill="#FDF8FD"/>
    <path fill-rule="evenodd" clip-rule="evenodd" d="M170.476 70.0596C172.015 71.6288 173.945 72.4139 176.266 72.4139C178.585 72.4139 180.525 71.6288 182.086 70.0596C183.646 68.4896 184.425 66.4974 184.425 64.0831C184.425 61.669 183.646 59.6759 182.086 58.1059C180.525 56.5366 178.585 55.7525 176.266 55.7525C173.945 55.7525 172.015 56.5366 170.476 58.1059C168.936 59.6759 168.166 61.669 168.166 64.0831C168.166 66.4974 168.936 68.4896 170.476 70.0596ZM187.546 75.4021C184.465 78.4807 180.706 80.0203 176.266 80.0203C171.826 80.0203 168.076 78.4807 165.016 75.4021C161.956 72.3227 160.426 68.5503 160.426 64.0831C160.426 59.6152 161.956 55.8419 165.016 52.7633C168.076 49.6857 171.826 48.1461 176.266 48.1461C180.706 48.1461 184.465 49.6857 187.546 52.7633C190.625 55.8419 192.165 59.6152 192.165 64.0831C192.165 68.5503 190.625 72.3227 187.546 75.4021Z" fill="#FDF8FD"/>
    <path fill-rule="evenodd" clip-rule="evenodd" d="M215.171 55.8241H208.204V69.3637C208.204 70.4373 208.471 71.2213 209.005 71.7171C209.539 72.2119 210.321 72.4911 211.349 72.5529C212.376 72.6155 213.65 72.6054 215.171 72.5215V79.7659C209.704 80.386 205.85 79.8691 203.61 78.2187C201.369 76.5684 200.25 73.6162 200.25 69.3637V55.8241H194.886V48.1458H200.25V42.8328L208.204 40.3909V48.1458H215.171V55.8241Z" fill="#FDF8FD"/>
    <path fill-rule="evenodd" clip-rule="evenodd" d="M227.872 70.0596C229.411 71.6288 231.341 72.4139 233.661 72.4139C235.981 72.4139 237.922 71.6288 239.482 70.0596C241.042 68.4896 241.821 66.4974 241.821 64.0831C241.821 61.669 241.042 59.6759 239.482 58.1059C237.922 56.5366 235.981 55.7525 233.661 55.7525C231.341 55.7525 229.411 56.5366 227.872 58.1059C226.332 59.6759 225.561 61.669 225.561 64.0831C225.561 66.4974 226.332 68.4896 227.872 70.0596ZM244.941 75.4021C241.861 78.4807 238.102 80.0203 233.661 80.0203C229.221 80.0203 225.471 78.4807 222.411 75.4021C219.351 72.3227 217.821 68.5503 217.821 64.0831C217.821 59.6152 219.351 55.8419 222.411 52.7633C225.471 49.6857 229.221 48.1461 233.661 48.1461C238.102 48.1461 241.861 49.6857 244.941 52.7633C248.02 55.8419 249.561 59.6152 249.561 64.0831C249.561 68.5503 248.02 72.3227 244.941 75.4021Z" fill="#FDF8FD"/>
    <path fill-rule="evenodd" clip-rule="evenodd" d="M270.956 58.6362C272.766 58.6362 274.265 58.0069 275.458 56.7472C276.65 55.4886 277.246 53.9295 277.246 52.0719C277.246 50.1737 276.65 48.6046 275.458 47.3661C274.265 46.1277 272.766 45.5085 270.956 45.5085H263.373V58.6362H270.956ZM270.956 37.5205C275.109 37.5205 278.602 38.9248 281.439 41.7315C284.274 44.5392 285.693 47.9854 285.693 52.0719C285.693 56.1594 284.274 59.6066 281.439 62.4132C278.602 65.2208 275.109 66.6232 270.956 66.6232H263.373V80.02H254.863V37.5205H270.956Z" fill="#FDF8FD"/>
    <path fill-rule="evenodd" clip-rule="evenodd" d="M290.998 80.0203H298.952V53.4589H290.998V80.0203ZM294.9 48.1459C293.48 48.1459 292.25 47.6225 291.208 46.5749C290.166 45.529 289.645 44.2934 289.645 42.8661C289.645 41.4415 290.166 40.1938 291.208 39.124C292.25 38.0553 293.48 37.5208 294.9 37.5208C296.364 37.5208 297.618 38.0553 298.659 39.124C299.703 40.1938 300.224 41.4415 300.224 42.8661C300.224 44.2934 299.703 45.529 298.659 46.5749C297.618 47.6225 296.364 48.1459 294.9 48.1459Z" fill="#FDF8FD"/>
    <path fill-rule="evenodd" clip-rule="evenodd" d="M312.425 61.2458H328.081C327.629 59.1929 326.699 57.6642 325.288 56.658C323.874 55.6527 322.268 55.1487 320.467 55.1487C318.339 55.1487 316.579 55.6832 315.188 56.7483C313.797 57.8144 312.875 59.3137 312.425 61.2458ZM334.936 72.8642C334.672 73.2679 334.466 73.5608 334.466 73.5608C331.436 77.8676 326.975 80.0202 321.081 80.0202C316.006 80.0202 311.935 78.5108 308.866 75.4922C305.796 72.4745 304.261 68.6708 304.261 64.083C304.261 59.5357 305.774 55.7421 308.803 52.7032C311.832 49.6662 315.72 48.1458 320.467 48.1458C324.969 48.1458 328.685 49.6753 331.61 52.7336C334.536 55.7928 336 59.5762 336 64.083C336 65.0892 335.897 66.1561 335.693 67.2822H312.548C313.612 71.0657 316.498 72.9573 321.205 72.9573C323.888 72.9573 325.994 72.1676 327.522 70.5864C329.733 71.2628 334.936 72.8642 334.936 72.8642Z" fill="#FDF8FD"/>
    <path fill-rule="evenodd" clip-rule="evenodd" d="M11.3636 26.847C10.681 26.847 10.0606 27.1382 9.63585 27.6091C9.25413 28.0127 9.01561 28.5545 9 29.1461V29.3054C9.00735 29.5847 9.06334 29.8481 9.16241 30.0914C9.16615 30.1117 9.17441 30.131 9.18163 30.1513C9.25787 30.3347 9.35695 30.506 9.47718 30.6619C9.52026 30.7217 9.56799 30.7769 9.61933 30.8296C9.62759 30.8414 9.63959 30.8534 9.65146 30.8663L17.1891 39.8522L19.9105 43.0957L28.0574 52.8039L30.7752 56.0447L38.0697 64.7403L40.7875 67.98V90.6935C42.3894 90.6935 43.8438 90.055 44.9127 89.0221C44.9164 89.0221 44.9164 89.0221 44.9164 89.0183L45.7192 88.06L65.2813 64.7403L71.9802 56.756C72.0124 56.7191 72.0436 56.6841 72.0721 56.6436C72.2142 56.4639 72.3298 56.264 72.4133 56.0447C72.5207 55.7774 72.5766 55.49 72.5766 55.1831V29.2262C72.5766 28.5988 72.3336 28.0247 71.9362 27.6054C71.5077 27.1382 70.8921 26.847 70.2076 26.847H11.3636Z" fill="#615D66"/>
    <path fill-rule="evenodd" clip-rule="evenodd" d="M40.7884 80.9812V90.6941C39.1872 90.6941 37.733 90.0556 36.6639 89.0226C36.6594 89.0226 36.6594 89.0226 36.6594 89.018L35.8574 88.0606L16.2954 64.74L9.63585 56.8035C9.62024 56.7917 9.60837 56.775 9.59637 56.7594L9.49278 56.6358C9.48453 56.6276 9.47717 56.6202 9.46892 56.6082C9.34224 56.4359 9.23491 56.2488 9.1588 56.0453C9.06334 55.802 9.00826 55.5384 9 55.263V55.1036C9.01651 54.5055 9.25413 53.9702 9.63585 53.5629C10.0653 53.0958 10.681 52.8045 11.3646 52.8045H17.1423L19.8601 56.0453L27.1555 64.74L39.1156 78.9937L40.7846 80.9848L40.7884 80.9812Z" fill="#B7B3BB"/>
    <path fill-rule="evenodd" clip-rule="evenodd" d="M40.7884 67.9801V80.9807L40.7846 80.9844L39.1156 78.9932L27.1555 64.7394L19.8601 56.0447L17.1423 52.8041L9.59186 43.8108C9.56064 43.774 9.52852 43.7343 9.4964 43.6947C9.35785 43.515 9.24226 43.315 9.1588 43.0957C9.06334 42.8525 9.00826 42.589 9 42.3098V42.1504C9.01651 41.5561 9.25413 41.0207 9.63585 40.6144C10.0606 40.1435 10.681 39.8524 11.3646 39.8524H17.19L19.9114 43.0957L28.0574 52.8041L30.7752 56.0447L38.0706 64.7394L40.7884 67.9801Z" fill="#98959A"/>
    <rect x="352" y="28.7706" width="170" height="60" rx="30" fill="#FFFBFF"/>
    <path d="M382.832 48.1586V50.4266H380.116V48.1586H382.832ZM382.832 53.1706V65.7706H380.368V55.1866H378.492L378.632 53.1706H382.832ZM389.498 56.4746V65.7706H387.034V53.1706H389.274L389.414 54.4866C390.048 53.9826 390.758 53.5906 391.542 53.3106C392.344 53.0306 393.259 52.8906 394.286 52.8906C395.76 52.8906 396.824 53.2546 397.478 53.9826C398.15 54.7106 398.486 55.8679 398.486 57.4546V65.7706H396.078V57.7346C396.078 57.0439 395.984 56.5026 395.798 56.1106C395.611 55.6999 395.303 55.4012 394.874 55.2146C394.444 55.0279 393.856 54.9346 393.11 54.9346C392.419 54.9346 391.766 55.0746 391.15 55.3546C390.534 55.6346 389.983 56.0079 389.498 56.4746ZM411.728 59.8626V65.7706H409.264V48.6346H416.46C418.271 48.6346 419.633 49.1479 420.548 50.1746C421.463 51.2012 421.92 52.5826 421.92 54.3186C421.92 55.4386 421.696 56.4186 421.248 57.2586C420.8 58.0986 420.156 58.7426 419.316 59.1906C418.476 59.6386 417.487 59.8626 416.348 59.8626H411.728ZM416.068 50.7906H411.728V57.7346H415.928C417.067 57.7346 417.944 57.4359 418.56 56.8386C419.176 56.2226 419.484 55.3826 419.484 54.3186C419.484 53.1612 419.195 52.2839 418.616 51.6866C418.037 51.0892 417.188 50.7906 416.068 50.7906ZM431.227 66.0506C429.753 66.0506 428.521 65.8079 427.531 65.3226C426.542 64.8186 425.805 64.0812 425.319 63.1106C424.853 62.1399 424.619 60.9079 424.619 59.4146C424.619 57.3239 425.105 55.7186 426.075 54.5986C427.046 53.4599 428.53 52.8906 430.527 52.8906C432.263 52.8906 433.607 53.3759 434.559 54.3466C435.511 55.2986 435.987 56.5866 435.987 58.2106V60.3946H426.915C427.009 61.7572 427.429 62.7559 428.175 63.3906C428.941 64.0252 430.154 64.3426 431.815 64.3426C432.394 64.3426 432.982 64.2866 433.579 64.1746C434.177 64.0439 434.727 63.8759 435.231 63.6706V65.2946C434.093 65.7986 432.758 66.0506 431.227 66.0506ZM426.915 58.8266H433.803V57.8466C433.803 56.8386 433.542 56.0452 433.019 55.4666C432.515 54.8879 431.703 54.5986 430.583 54.5986C429.258 54.5986 428.315 54.9719 427.755 55.7186C427.195 56.4466 426.915 57.4826 426.915 58.8266ZM442.134 56.5866V65.7706H439.67V53.1706H441.994L442.134 54.6266C442.732 54.2346 443.432 53.8799 444.234 53.5626C445.037 53.2452 445.821 53.0212 446.586 52.8906V54.9346C445.858 55.0652 445.065 55.2892 444.206 55.6066C443.348 55.9052 442.657 56.2319 442.134 56.5866ZM453.571 66.0506C452.787 66.0506 452.022 65.9946 451.275 65.8826C450.529 65.7706 449.903 65.6119 449.399 65.4066V63.5866C449.959 63.8106 450.575 63.9879 451.247 64.1186C451.919 64.2306 452.545 64.2866 453.123 64.2866H453.571C454.449 64.2306 455.093 64.0626 455.503 63.7826C455.914 63.4839 456.119 63.0266 456.119 62.4106C456.119 61.9812 456.026 61.6452 455.839 61.4026C455.653 61.1599 455.391 60.9639 455.055 60.8146C454.719 60.6652 454.197 60.4786 453.487 60.2546C453.375 60.2172 453.254 60.1799 453.123 60.1426C452.993 60.0866 452.853 60.0306 452.703 59.9746C452.591 59.9372 452.479 59.8999 452.367 59.8626C452.274 59.8252 452.171 59.7879 452.059 59.7506C451.369 59.4892 450.818 59.2372 450.407 58.9946C450.015 58.7332 449.698 58.3972 449.455 57.9866C449.231 57.5572 449.119 57.0252 449.119 56.3906C449.119 55.2146 449.511 54.3372 450.295 53.7586C451.098 53.1799 452.339 52.8906 454.019 52.8906C454.71 52.8906 455.382 52.9372 456.035 53.0306C456.707 53.1052 457.267 53.2172 457.715 53.3666V55.1866C457.211 55.0186 456.689 54.8879 456.147 54.7946C455.625 54.7012 455.111 54.6546 454.607 54.6546H454.243C453.347 54.7106 452.685 54.8692 452.255 55.1306C451.826 55.3919 451.611 55.8119 451.611 56.3906C451.611 56.8946 451.751 57.2679 452.031 57.5106C452.311 57.7346 452.825 57.9772 453.571 58.2386C453.739 58.3132 453.907 58.3786 454.075 58.4346C454.243 58.4906 454.43 58.5466 454.635 58.6026C455.606 58.9012 456.362 59.1999 456.903 59.4986C457.463 59.7972 457.874 60.1706 458.135 60.6186C458.415 61.0666 458.555 61.6639 458.555 62.4106C458.555 63.6426 458.126 64.5572 457.267 65.1546C456.427 65.7519 455.195 66.0506 453.571 66.0506ZM465.574 48.1586V50.4266H462.858V48.1586H465.574ZM465.574 53.1706V65.7706H463.11V55.1866H461.234L461.374 53.1706H465.574ZM473.528 66.0506C472.258 66.0506 471.232 65.7519 470.448 65.1546C469.664 64.5386 469.272 63.5959 469.272 62.3266C469.272 60.9639 469.673 59.9839 470.476 59.3866C471.278 58.7706 472.436 58.4626 473.948 58.4626H478.12V57.3706C478.12 56.6986 478.017 56.1666 477.812 55.7746C477.606 55.3639 477.252 55.0652 476.748 54.8786C476.244 54.6919 475.525 54.5986 474.592 54.5986C473.248 54.5986 471.941 54.8226 470.672 55.2706V53.6466C471.25 53.4039 471.932 53.2172 472.716 53.0866C473.518 52.9559 474.33 52.8906 475.152 52.8906C476.925 52.8906 478.25 53.2732 479.128 54.0386C480.024 54.7852 480.472 55.9799 480.472 57.6226V65.7706H478.372L478.204 64.3146C477.662 64.8932 477.009 65.3319 476.244 65.6306C475.497 65.9106 474.592 66.0506 473.528 66.0506ZM474.368 64.4266C475.189 64.4266 475.898 64.2959 476.496 64.0346C477.093 63.7732 477.634 63.3626 478.12 62.8026V60.0026H474.452C473.518 60.0026 472.8 60.1706 472.296 60.5066C471.792 60.8239 471.54 61.4026 471.54 62.2426C471.54 62.9892 471.782 63.5399 472.268 63.8946C472.772 64.2492 473.472 64.4266 474.368 64.4266ZM487.005 56.4746V65.7706H484.541V53.1706H486.781L486.921 54.4866C487.556 53.9826 488.265 53.5906 489.049 53.3106C489.852 53.0306 490.767 52.8906 491.793 52.8906C493.268 52.8906 494.332 53.2546 494.985 53.9826C495.657 54.7106 495.993 55.8679 495.993 57.4546V65.7706H493.585V57.7346C493.585 57.0439 493.492 56.5026 493.305 56.1106C493.119 55.6999 492.811 55.4012 492.381 55.2146C491.952 55.0279 491.364 54.9346 490.617 54.9346C489.927 54.9346 489.273 55.0746 488.657 55.3546C488.041 55.6346 487.491 56.0079 487.005 56.4746Z" fill="#313033"/>
  </symbol>
  <symbol xmlns="http://www.w3.org/2000/svg" viewBox="0 0 24 25" fill="none" id="twitter">
    <path fill-rule="evenodd" clip-rule="evenodd" d="M19.9536 7.78199C19.9611 7.97989 19.9636 8.17771 19.9636 8.37561C19.9636 14.3756 15.8367 21.3022 8.29002 21.3022C5.97181 21.3022 3.81621 20.5466 2 19.2603C2.32105 19.2962 2.6471 19.3233 2.97816 19.3233C4.90027 19.3233 6.67062 18.5945 8.07488 17.3711C6.27952 17.3441 4.76352 16.0218 4.24067 14.2227C4.49167 14.2767 4.75016 14.3037 5.0145 14.3037C5.38725 14.3037 5.74915 14.2498 6.09605 14.1419C4.2173 13.7281 2.80221 11.893 2.80221 9.68914C2.80221 9.66215 2.80221 9.6531 2.80221 9.63511C3.35591 9.96795 3.98965 10.1747 4.6626 10.2017C3.5602 9.38313 2.83554 7.98887 2.83554 6.41465C2.83554 5.58707 3.03734 4.80442 3.39258 4.12976C5.4156 6.88238 8.44013 8.69051 11.8499 8.87941C11.7799 8.54658 11.744 8.19584 11.744 7.84502C11.744 5.33527 13.581 3.30225 15.8475 3.30225C17.0275 3.30225 18.0932 3.85105 18.8412 4.73261C19.7777 4.53471 20.6549 4.15692 21.4488 3.63518C21.1411 4.69665 20.4915 5.58702 19.6426 6.14474C20.4731 6.0368 21.2653 5.7941 22 5.43428C21.4488 6.34283 20.755 7.14331 19.9536 7.78199Z" fill="#ADADAD"/>
  </symbol>
  <symbol  xmlns="http://www.w3.org/2000/svg" viewBox="0 0 24 25" fill="none" id="instagram">
    <path d="M12.0009 2.30225C9.28508 2.30225 8.94424 2.31412 7.87756 2.36266C6.81297 2.41141 6.08629 2.57995 5.45045 2.82725C4.79274 3.08266 4.23481 3.42433 3.67898 3.98037C3.12272 4.5362 2.78105 5.09412 2.5248 5.75162C2.27688 6.38766 2.10813 7.11454 2.06021 8.1787C2.0125 9.24537 2 9.58641 2 12.3022C2 15.0181 2.01208 15.3579 2.06042 16.4245C2.10938 17.4891 2.27792 18.2158 2.52501 18.8516C2.78063 19.5093 3.1223 20.0672 3.67835 20.6231C4.23398 21.1793 4.7919 21.5218 5.4492 21.7772C6.08546 22.0245 6.81234 22.1931 7.87673 22.2418C8.94341 22.2904 9.28403 22.3022 11.9997 22.3022C14.7158 22.3022 15.0556 22.2904 16.1222 22.2418C17.1868 22.1931 17.9143 22.0245 18.5506 21.7772C19.2081 21.5218 19.7652 21.1793 20.3208 20.6231C20.8771 20.0672 21.2187 19.5093 21.475 18.8518C21.7208 18.2158 21.8896 17.4889 21.9396 16.4247C21.9875 15.3581 22 15.0181 22 12.3022C22 9.58641 21.9875 9.24558 21.9396 8.17891C21.8896 7.11433 21.7208 6.38766 21.475 5.75183C21.2187 5.09412 20.8771 4.5362 20.3208 3.98037C19.7646 3.42412 19.2083 3.08245 18.55 2.82725C17.9125 2.57995 17.1854 2.41141 16.1208 2.36266C15.0541 2.31412 14.7145 2.30225 11.9978 2.30225H12.0009ZM11.1038 4.10433C11.3701 4.10391 11.6672 4.10433 12.0009 4.10433C14.671 4.10433 14.9874 4.11391 16.0418 4.16183C17.0168 4.20641 17.546 4.36933 17.8985 4.5062C18.3652 4.68745 18.6979 4.90412 19.0477 5.25412C19.3977 5.60412 19.6143 5.93745 19.796 6.40412C19.9329 6.7562 20.096 7.28537 20.1404 8.26037C20.1883 9.31454 20.1987 9.6312 20.1987 12.3C20.1987 14.9687 20.1883 15.2854 20.1404 16.3395C20.0958 17.3145 19.9329 17.8437 19.796 18.1958C19.6148 18.6625 19.3977 18.9947 19.0477 19.3445C18.6977 19.6945 18.3654 19.9112 17.8985 20.0925C17.5464 20.23 17.0168 20.3925 16.0418 20.437C14.9876 20.485 14.671 20.4954 12.0009 20.4954C9.3307 20.4954 9.01424 20.485 7.96006 20.437C6.98505 20.392 6.45588 20.2291 6.10317 20.0922C5.6365 19.911 5.30316 19.6943 4.95316 19.3443C4.60315 18.9943 4.38648 18.6618 4.20481 18.195C4.06794 17.8429 3.90481 17.3137 3.86044 16.3387C3.81252 15.2845 3.80294 14.9679 3.80294 12.2975C3.80294 9.62704 3.81252 9.31204 3.86044 8.25787C3.90502 7.28287 4.06794 6.7537 4.20481 6.4012C4.38607 5.93454 4.60315 5.6012 4.95316 5.2512C5.30316 4.9012 5.6365 4.68454 6.10317 4.50287C6.45567 4.36537 6.98505 4.20287 7.96006 4.15808C8.88257 4.11641 9.24008 4.10391 11.1038 4.10183V4.10433ZM17.3389 5.76475C16.6764 5.76475 16.1389 6.30162 16.1389 6.96433C16.1389 7.62683 16.6764 8.16433 17.3389 8.16433C18.0014 8.16433 18.5389 7.62683 18.5389 6.96433C18.5389 6.30183 18.0014 5.76433 17.3389 5.76433V5.76475ZM12.0009 7.16683C9.16487 7.16683 6.86547 9.4662 6.86547 12.3022C6.86547 15.1383 9.16487 17.4366 12.0009 17.4366C14.837 17.4366 17.1356 15.1383 17.1356 12.3022C17.1356 9.4662 14.8368 7.16683 12.0007 7.16683H12.0009ZM12.0009 8.96891C13.8418 8.96891 15.3343 10.4612 15.3343 12.3022C15.3343 14.1431 13.8418 15.6356 12.0009 15.6356C10.1599 15.6356 8.66757 14.1431 8.66757 12.3022C8.66757 10.4612 10.1599 8.96891 12.0009 8.96891Z" fill="#ADADAD"/>
  </symbol>
  <symbol  xmlns="http://www.w3.org/2000/svg" width="24" height="25" viewBox="0 0 24 25" fill="none"  id="linkedin">
    <path d="M9 9.30225H13.1512V11.43H13.2105C13.788 10.3942 15.2017 9.30225 17.3085 9.30225C21.69 9.30225 22.5 12.03 22.5 15.5775V22.8022H18.1733V16.3972C18.1733 14.8695 18.1417 12.9045 15.9225 12.9045C13.6687 12.9045 13.3253 14.568 13.3253 16.2862V22.8022H9V9.30225Z" fill="#ADADAD"/>
    <path d="M1.5 9.30225H6V22.8022H1.5V9.30225Z" fill="#ADADAD"/>
    <path d="M6 5.55225C6 6.795 4.99275 7.80225 3.75 7.80225C2.50725 7.80225 1.5 6.795 1.5 5.55225C1.5 4.3095 2.50725 3.30225 3.75 3.30225C4.99275 3.30225 6 4.3095 6 5.55225Z" fill="#ADADAD"/>
  </symbol>
  <symbol xmlns="http://www.w3.org/2000/svg" viewBox="0 0 24 25" fill="none" id="youtube">
    <path fill-rule="evenodd" clip-rule="evenodd" d="M19.9231 5.42343C20.7905 5.65696 21.4744 6.34085 21.7079 7.20823C22.1416 8.79286 22.1249 12.0956 22.1249 12.0956C22.1249 12.0956 22.1249 15.3816 21.7079 16.9662C21.4744 17.8336 20.7905 18.5175 19.9231 18.751C18.3385 19.168 12 19.168 12 19.168C12 19.168 5.67811 19.168 4.0768 18.7343C3.20943 18.5008 2.52553 17.8169 2.29201 16.9495C1.875 15.3816 1.875 12.0789 1.875 12.0789C1.875 12.0789 1.875 8.79286 2.29201 7.20823C2.52553 6.34085 3.22611 5.64028 4.0768 5.40675C5.66143 4.98975 12 4.98975 12 4.98975C12 4.98975 18.3385 4.98975 19.9231 5.42343ZM15.2524 11.9631L9.98145 14.9989V8.92725L15.2524 11.9631Z" fill="#ADADAD"/>
  </symbol>
  <symbol xmlns="http://www.w3.org/2000/svg" viewBox="0 0 256 256" fill="none" id="telegram">
    <g  transform="translate(1.4065934065934016 1.4065934065934016) scale(2.81 2.81)" >
      <path d="M 83.924 7.756 L 4.202 38.496 c -5.442 2.183 -5.409 5.219 -0.992 6.571 l 20.455 6.385 l 7.035 23.153 c 0.925 2.553 0.469 3.566 3.151 3.566 c 2.069 0 2.983 -0.946 4.138 -2.069 l 9.941 -9.666 l 20.681 15.28 c 3.806 2.1 6.553 1.012 7.501 -3.533 l 13.577 -63.978 C 91.079 8.631 87.565 6.103 83.924 7.756 z"  fill="#ADADAD" transform=" matrix(1 0 0 1 0 0) " stroke-linecap="round" />
      <path d="M 33.942 72.016 l -6.747 -22.204 L 79.13 19.002 L 40.751 56.789 L 33.942 72.016 z" fill="#292929" transform=" matrix(1 0 0 1 0 0) " stroke-linecap="round" />
    </g>
  </symbol>
</svg>